<?xml version="1.0" encoding="utf-8"?>
<!-- Generator: Adobe Illustrator 18.0.0, SVG Export Plug-In . SVG Version: 6.00 Build 0)  -->
<!DOCTYPE svg PUBLIC "-//W3C//DTD SVG 1.1//EN" "http://www.w3.org/Graphics/SVG/1.1/DTD/svg11.dtd">
<svg version="1.1" id="Layer_1" xmlns="http://www.w3.org/2000/svg" xmlns:xlink="http://www.w3.org/1999/xlink" x="0px" y="0px"
	 viewBox="0 0 391 380" enable-background="new 0 0 391 380" xml:space="preserve">
<g>
	<path fill="#010101" d="M301.4,348.7c0,0-61.1,0-61.5-16.1c0,0-1.6-5.1,9.1-10.8l15.9-1.2c0,0-18.3-6.9-18.9-5.9
		c-0.6,1-22.8,8.1-22.8,8.1s-2.8,9.6-1.8,11.6s5.5,12.8,5.5,12.8l22.1,7.9c0,0,18.9,2,21.3,2C272.9,357.1,301.4,348.7,301.4,348.7z"
		/>
	<path fill="#676767" d="M207.6,375c57.4,5.2,93.9-26.3,93.9-26.3c-0.1,0-0.1,0-0.2,0c-43.9,32.4-93.6,24.2-93.6,24.2
		c-24.3-21.9-33.6-42-35.6-50.9C174.9,334.5,186.7,356.7,207.6,375z"/>
	<radialGradient id="SVGID_1_" cx="263.3267" cy="175.6689" r="163.4086" gradientUnits="userSpaceOnUse">
		<stop  offset="0" style="stop-color:#141414"/>
		<stop  offset="1" style="stop-color:#010101"/>
	</radialGradient>
	<path fill="url(#SVGID_1_)" d="M359,162.6c16.5,110.1-79.2,205.8-189.3,189.3C99.4,341.3,46.5,288.3,35.9,218
		C19.4,108,115.2,12.2,225.2,28.8C295.5,39.3,348.5,92.3,359,162.6z"/>
	<path fill="#55A4DB" d="M359.6,162.4c0,0,0.1,1,0.4,2.9c0.2,1.9,0.7,4.8,1,8.6c0.5,7.5,1.1,18.7-0.6,32.7c-0.2,1.8-0.4,3.5-0.7,5.4
		c-0.2,1.8-0.7,3.7-1,5.6c-0.4,1.9-0.7,3.9-1.2,5.9c-0.5,2-1,4-1.5,6.1c-0.5,2.1-1.1,4.1-1.8,6.3c-0.7,2.1-1.2,4.3-2,6.4
		c-0.8,2.2-1.6,4.3-2.4,6.6c-0.4,1.1-0.9,2.2-1.4,3.3c-0.5,1.1-1,2.2-1.5,3.3c-4,9-9,18.2-15.3,27.3c-6.3,9-13.8,18-22.6,26.4
		c-17.5,16.8-40.3,31.4-67,39.7c-13.3,4.1-27.6,6.8-42.3,7.4c-1.8,0-3.7,0.1-5.5,0.1c-1.8,0-3.7,0.1-5.6,0c-1.9-0.1-3.7-0.2-5.6-0.3
		l-2.8-0.1c-0.9,0-1.9-0.2-2.8-0.3c-1.9-0.2-3.7-0.4-5.6-0.6c-1-0.1-1.8-0.2-2.9-0.3l-2.8-0.4c-3.7-0.5-7.5-1.3-11.2-2.2
		c-15-3.4-29.7-9-43.6-16.7c-13.8-7.7-26.7-17.7-37.8-29.5c-5.5-5.9-10.7-12.3-15.3-19c-4.6-6.7-8.7-13.9-12.2-21.3
		c-3.5-7.4-6.5-15.1-8.9-23c-1.2-3.9-2.2-7.9-3.2-11.9c-0.4-2-0.9-4-1.3-6l-1.1-6.2l-0.7-6c-0.2-2-0.5-4-0.6-6.1l-0.3-6.2
		c0-1-0.1-2.1-0.1-3.1l0-3.1l0-6.2c0.1-2.1,0.3-4.1,0.4-6.2l0.2-3.1l0.1-1.5l0.2-1.5l0.8-6.1c2.2-16.3,7.2-32,14-46.7
		c13.7-29.4,35.7-54,61.4-70.6c12.8-8.4,26.5-15,40.6-19.4c14-4.5,28.3-7,42.3-7.8c14-0.8,27.6,0.4,40.5,2.7
		c6.4,1.3,12.7,2.8,18.8,4.7c6,1.9,11.9,4.1,17.4,6.6c2.8,1.2,5.5,2.6,8.1,3.9c1.3,0.7,2.6,1.4,3.9,2.1l1.9,1l1.9,1.1
		c5,2.9,9.7,6.1,14.2,9.3c8.9,6.6,16.6,13.7,23.2,21c13.2,14.6,21.9,29.7,27.6,42.5c5.7,12.9,8.5,23.7,10.1,31.1
		c0.4,1.8,0.7,3.5,1,4.9c0.2,1.4,0.4,2.6,0.6,3.6C359.5,161.5,359.6,162.4,359.6,162.4z M359.6,162.4c0,0-0.2-1-0.5-2.9
		c-0.2-1-0.4-2.2-0.6-3.6c-0.3-1.4-0.6-3-1-4.9c-1.7-7.4-4.5-18.1-10.2-31c-2.9-6.4-6.5-13.4-11.1-20.5
		c-4.6-7.2-10.1-14.5-16.8-21.7c-6.7-7.2-14.5-14.1-23.4-20.6c-9-6.3-19-12.1-30.1-16.7c-5.5-2.4-11.3-4.4-17.3-6.1
		c-6-1.8-12.2-3.1-18.6-4.2c-12.8-2-26.2-2.9-39.9-1.8c-13.7,1-27.6,3.8-41.1,8.5c-13.6,4.6-26.8,11.4-39,19.7
		c-12.3,8.4-23.7,18.5-33.5,30.2c-9.8,11.7-18.4,24.7-24.7,38.9l-2.3,5.3c-0.8,1.8-1.4,3.6-2.1,5.5l-1,2.7l-0.5,1.4l-0.4,1.4
		l-1.7,5.6c-0.6,1.9-1.1,3.8-1.5,5.7l-1.4,5.7l-1.1,5.8c-0.4,1.9-0.7,3.9-0.9,5.8l-0.7,5.8l-0.2,1.5l-0.1,1.5l-0.2,2.9
		c-0.1,2-0.3,3.9-0.3,5.9l0,5.9l0,3c0,1,0.1,1.9,0.1,2.9l0.3,5.8c0.1,1.9,0.4,4,0.6,6l0.7,6l1,5.7c0.4,1.9,0.8,3.9,1.2,5.8
		c0.9,3.8,1.8,7.7,3,11.4c2.3,7.5,5.1,14.9,8.4,22c3.3,7.1,7.2,13.9,11.6,20.4c4.3,6.5,9.2,12.6,14.4,18.4
		c21,22.9,48.7,38.6,77.6,45.8c3.6,0.9,7.1,1.7,10.9,2.3l2.8,0.5c0.8,0.1,1.8,0.2,2.7,0.4c1.8,0.2,3.6,0.5,5.5,0.7
		c0.9,0.1,1.8,0.3,2.7,0.3l2.7,0.2c1.8,0.1,3.6,0.2,5.4,0.4c1.8,0.2,3.6,0.1,5.4,0.1c1.8,0,3.6,0,5.4,0c14.4-0.3,28.4-2.5,41.5-6.3
		c26.4-7.6,49.2-21.5,66.8-37.7c8.8-8.1,16.5-16.9,22.8-25.8c6.4-8.9,11.5-18.1,15.6-27c8.3-17.8,12.1-34.7,13.8-48.7
		c1.7-14,1.2-25.1,0.7-32.6c-0.3-3.8-0.7-6.6-0.9-8.6C359.7,163.4,359.6,162.4,359.6,162.4z"/>
	<path fill="#1A1A1A" d="M359,162.6c0,0,0.1,1,0.4,2.9c0.2,1.9,0.7,4.8,1,8.5c0.5,7.5,1.1,18.6-0.5,32.6c-0.2,1.7-0.4,3.5-0.7,5.4
		c-0.2,1.8-0.7,3.7-1,5.6c-0.4,1.9-0.7,3.9-1.1,5.8c-0.5,2-1,4-1.5,6c-0.5,2.1-1.1,4.1-1.8,6.2c-0.7,2.1-1.2,4.3-2,6.4
		c-0.8,2.1-1.6,4.3-2.4,6.5c-0.4,1.1-0.9,2.2-1.4,3.3c-0.5,1.1-1,2.2-1.5,3.3c-4,8.9-9,18.2-15.3,27.2c-6.3,9-13.7,18-22.5,26.3
		c-17.4,16.8-40.1,31.3-66.8,39.6c-13.3,4.1-27.5,6.8-42.2,7.3c-1.8,0-3.7,0.1-5.5,0.1c-1.8,0-3.7,0.1-5.5,0
		c-1.9-0.1-3.7-0.2-5.6-0.3l-2.8-0.1c-0.9,0-1.9-0.2-2.8-0.3c-1.9-0.2-3.7-0.4-5.6-0.6c-1-0.1-1.8-0.2-2.9-0.3l-2.8-0.4
		c-3.7-0.5-7.5-1.3-11.2-2.1c-14.9-3.4-29.6-8.9-43.4-16.6c-13.8-7.7-26.6-17.6-37.6-29.4c-5.5-5.9-10.6-12.2-15.2-18.9
		c-4.6-6.7-8.6-13.8-12.2-21.2c-3.5-7.4-6.5-15-8.9-22.9c-1.2-3.9-2.2-7.9-3.2-11.9c-0.4-2-0.9-4-1.3-6l-1.1-6.2l-0.7-6
		c-0.2-2-0.5-3.9-0.6-6l-0.3-6.2c0-1-0.1-2.1-0.1-3.1l0-3.1l0-6.1c0.1-2,0.3-4.1,0.4-6.1l0.2-3.1l0.1-1.5l0.2-1.5l0.8-6.1
		c2.2-16.2,7.2-31.9,13.9-46.5c13.6-29.3,35.6-53.8,61.2-70.3c12.8-8.3,26.4-14.9,40.4-19.4c14-4.5,28.2-7,42.1-7.7
		c13.9-0.8,27.5,0.4,40.3,2.7c6.4,1.3,12.7,2.7,18.7,4.7c6,1.9,11.8,4,17.3,6.5c2.8,1.2,5.4,2.6,8.1,3.9c1.3,0.7,2.6,1.4,3.9,2.1
		l1.9,1l1.9,1.1c5,2.9,9.7,6.1,14.2,9.3c8.8,6.6,16.6,13.6,23.2,20.9c13.1,14.6,21.8,29.6,27.5,42.4c5.7,12.9,8.5,23.6,10.1,31
		c0.4,1.8,0.7,3.5,1,4.9c0.2,1.4,0.4,2.6,0.6,3.6C358.9,161.6,359,162.6,359,162.6z M359,162.6c0,0-0.2-1-0.5-2.9
		c-0.2-1-0.4-2.1-0.6-3.6c-0.3-1.4-0.6-3-1-4.9c-1.6-7.3-4.5-18.1-10.2-30.9c-2.9-6.4-6.5-13.3-11-20.4
		c-4.5-7.1-10.1-14.4-16.7-21.6c-6.6-7.2-14.4-14.1-23.3-20.5c-8.9-6.3-18.9-12.1-30-16.7c-5.5-2.4-11.3-4.4-17.3-6.1
		c-6-1.8-12.2-3.1-18.5-4.2c-12.7-2-26.1-2.9-39.7-1.8c-13.6,1-27.5,3.8-41,8.4C135.6,42,122.5,48.7,110.2,57
		C98,65.4,86.6,75.5,76.9,87.2c-9.8,11.6-18.3,24.6-24.6,38.8l-2.3,5.3c-0.8,1.8-1.4,3.6-2.1,5.4l-1,2.7l-0.5,1.4l-0.4,1.4l-1.7,5.6
		c-0.6,1.8-1.1,3.7-1.5,5.6l-1.4,5.7l-1.1,5.8c-0.4,1.9-0.7,3.8-0.9,5.8l-0.7,5.8l-0.2,1.5l-0.1,1.5l-0.2,2.9
		c-0.1,2-0.3,3.9-0.3,5.9l0,5.9l0,2.9c0,1,0.1,1.9,0.1,2.9l0.3,5.8c0.1,1.9,0.4,4,0.6,5.9l0.7,6l1,5.7c0.4,1.9,0.8,3.8,1.2,5.8
		c0.9,3.8,1.8,7.6,3,11.4c2.3,7.5,5.1,14.8,8.4,21.9c3.3,7.1,7.2,13.9,11.5,20.3c4.3,6.5,9.1,12.6,14.3,18.3
		c20.9,22.9,48.6,38.5,77.3,45.6c3.6,0.9,7.1,1.7,10.8,2.3l2.7,0.5c0.8,0.1,1.8,0.2,2.7,0.4c1.8,0.2,3.6,0.5,5.4,0.7
		c0.9,0.1,1.8,0.3,2.7,0.3l2.7,0.2c1.8,0.1,3.6,0.2,5.4,0.4c1.8,0.2,3.6,0.1,5.4,0.1c1.8,0,3.6,0,5.4,0c14.3-0.3,28.3-2.5,41.4-6.3
		c26.3-7.6,49-21.4,66.6-37.6c8.8-8.1,16.4-16.8,22.8-25.7c6.4-8.9,11.4-18,15.5-26.9c8.3-17.7,12-34.6,13.7-48.5
		c1.7-14,1.2-25,0.7-32.5c-0.3-3.7-0.7-6.6-0.9-8.5C359.1,163.5,359,162.6,359,162.6z"/>
	<path fill="#010101" d="M210.8,209.1c0,0,11.6-56.1,29.8-45c14,12.5,4.9,42.5-14.7,62.8c-23.3,26-47.3,47.1-54.6,87.1h19.2
		l58.5-38.1c0,0,33.8-81,33.5-92.5s-25.9-56-25.9-56l-36.9,17.7C219.8,145.1,206.8,181.2,210.8,209.1z"/>
	<path fill="#010101" d="M214.8,27.5c0,0-69.3,88.4-34,200c0,0-43.6,57-43.9,78.6c0.7,15.5,2.3,20.8,10.7,41.9
		c9.6,19.5,17.2,27.5,17.2,27.5l-33.4-24.8l-18.1-67.1l-5.9-34.1l22.8-72.5c0,0,22.6-95.7,22.6-98.2c0-2.4,32.9-61.6,32.9-61.6
		l34.2-10.4L214.8,27.5z"/>
	<path fill="#010101" d="M313.7,190.3c0,0,9.1,23.6,7.9,30.8c0,0,55-68.5,32.5-166.7L367,91.5l5.3,74.8l-23.7,54.8l-26.9,34.4
		l-31.1-19.3l9.8-43.1L313.7,190.3z"/>
	<path fill="#010101" d="M23.5,289.7c0,0-22.6-101.2,74.4-168.9l14.3-23.2L83.3,111l-49.2,41.5l-12.8,31.1l-10.5,50
		C10.7,233.6,18.7,282.4,23.5,289.7z"/>
	<path fill="#333333" d="M210.8,209.1c0,0-34.3-99.1,46.1-194.8c0,0,54.4,20.3,81.5,60.4c0,0,7.1,55.4-26.5,133.7
		c0,0,5,17.6,2.7,32.9c0,0,71.4-71.2,39.5-186.9c0,0,86.4,146.3-15.1,265.3c0,0-16.4,6.8-92.1,0.7c-34.1,6.3-19.2,36.7,54.5,28.3
		c0,0-36.4,31.5-93.9,26.3c-24.3-21.3-36.2-47.7-36.2-58.3c0-10.6,10.8-42,37.3-67.3s41.8-30.2,47.7-65.6
		C262.2,148.4,215.1,127.4,210.8,209.1z"/>
	<path fill="#010101" d="M31.5,253.1l9.7-11.6c0,0,47.2-15.8,47.6-58.7l13.6,22.6L90,235c0,0-11.4,17.3-15.1,19.3
		c-3.7,2-24,9.6-24,9.6L31.5,253.1z"/>
	<path fill="#333333" d="M219.8,6.8c0,0-85.4,93.9-44.5,217c-6,8.3-11.6,16.8-17.1,25.5c-4.8,7.6-9.4,15.2-13.6,23.1
		c-3.9,7.2-7.6,14.5-10.2,22.2c-1,2.9-1.9,5.9-2.2,9c-0.5,3.9,0.3,7.9,1.1,11.7c2.5,12.6,7.9,24.5,14.3,35.6c2.5,4.2,5.1,8.4,8,12.4
		c1.5,2.1,3,4.1,4.5,6.1c0.8,1.1,1.7,2.2,2.5,3.2c0.2,0.3,2.5,2.7,2.3,2.9c-0.1,0.2-5.1-1.8-5.4-1.9c-4.1-1.6-8.1-3.3-12-5.1
		c-13-6-25.5-13.2-37.3-21.3c-16-11.1-30.8-24-43.7-38.6C52,292,40.1,273.3,31.5,253.1c11.5-4.6,22.6-11,32.4-18.6
		c7.5-5.8,14.5-12.6,18.9-21.1c4.4-8.3,5.4-18,5.1-27.2c-0.3-10.1-1.7-20-1.9-30.1c-0.2-12.8,1.8-25.5,5.9-37.7
		c0.7-2.1,1.5-4.1,2.3-6.2c0,0-96.9,65.2-70.7,177.4c0,0-46.3-99.4,5.7-192S182.8-0.7,219.8,6.8z"/>
	<path opacity="6.000000e-002" fill="#FFFFFF" d="M46.1,72.5c10.3,16.5,22.8,32.8,37.2,48.3c6.6-5.7,10.9-8.6,10.9-8.6
		c-0.8,2-1.6,4.1-2.3,6.2c-1,2.9-1.8,5.8-2.6,8.8c15.9,16.3,33.9,31.8,53.8,45.9c7.8,5.5,15.7,10.6,23.6,15.4
		C150.4,83.2,219.8,6.8,219.8,6.8C186.4,0.1,100.8,4,46.1,72.5z"/>
	<path fill="#676767" d="M123.5,83.6c0,0-43.3-1.5-89.5,64.9c-1.7,2.4-3.2,4.8-4.8,7.2c1.6-7.9,3.7-15.6,6.2-23.1
		c7.6-22.5,18.6-41.6,32.8-57C79.9,63,94.1,52.3,110.3,43.8c14-7.3,29.4-12.9,45.7-16.6c10.1-2.3,20.1-3.8,29.7-4.4
		c-6.6,10.5-13.8,23.8-20.3,39.3c-21.7,52-25.2,106.6-10.2,158.6c-4,5.8-8.1,12.1-12.4,18.9c-5.6,8.8-10.2,16.7-14.3,24.2
		c-3.9,7.2-8.3,15.7-11.4,25c-1,3-2.5,7.6-3.1,12.7c-0.8,6.9,0.4,13.3,1.3,17.5c0.8,3.8,1.8,7.7,3,11.5c-14.3-10.1-27-21.5-38-34
		c-9.5-10.8-17.7-22.5-24.4-34.8c6.7-3.7,13.1-8,19.1-12.6c11.1-8.6,18.9-17.4,24-27.1c5.2-10,6.5-27,6-36.2
		C103.4,159.9,96.4,135.1,123.5,83.6z"/>
	<linearGradient id="SVGID_2_" gradientUnits="userSpaceOnUse" x1="248.9561" y1="152.1344" x2="297.7287" y2="35.0801">
		<stop  offset="0" style="stop-color:#141414;stop-opacity:0"/>
		<stop  offset="1" style="stop-color:#010101"/>
	</linearGradient>
	<path fill="url(#SVGID_2_)" d="M277.1,186.9c13.4-60.1,41.8-108.7,41.8-108.7c-22.6-31.1-56.4-39.8-56.4-39.8
		c-36,40.8-42.7,98.2-42.7,98.2S270.7,106.5,277.1,186.9z"/>
	<path fill="#676767" d="M370.6,130.1c0,0,25.6,99.2-39.8,177.6c0,0-23.6,5.5-88.4,0.2c-15.1,4-23.2,7.5-27.8,20.2
		c-2.8,8.5,5.2,25.5,30.8,29.1c-15,6.5-37,2.4-37,2.4s-17.5-16.8-22.8-35.4c-5.3-18.6,25.2-57.2,25.2-57.2s44.9,5.5,48.9-10.2
		c4-16.6-25.9-16.6-25.9-16.6s16.3-7.3,26.8-4.3c10.6,3,19.6,13.3,19.6,13.3s5.7-3.5,2.6-14.5c-3-11-22-16.1-22-16.1
		s20.9-2,31.8,8.5c10.9,10.5,8,23.2,10.9,28.1c2.8,4.9,7.7,8.5,7.7,8.5S371,226.1,370.6,130.1z"/>
	<path fill="#676767" d="M215.9,8.5c-12.4,14.6-21.2,31-27.4,46.9c15-30.6,31.3-48.6,31.3-48.6C185.9,0,98.2,4.1,43.7,75.7
		C117.4-12.8,215.9,8.5,215.9,8.5z"/>
	<path fill="#676767" d="M210.8,209.1c0,0-15.6-54.5,1.7-114C193.4,158.7,210.8,209.1,210.8,209.1z"/>
	<path fill="#55A4DB" d="M313.1,78.4c0,0-23.2,35.1-36,108.5c13.4-60.1,41.8-108.7,41.8-108.7c-22.6-31.1-56.4-39.8-56.4-39.8
		c-36,40.8-42.7,98.2-42.7,98.2s13.1-61.9,44.5-93.3C264.3,43.4,297.6,55.6,313.1,78.4z"/>
	<g>
		<path opacity="6.000000e-002" fill="#FFFFFF" d="M318.2,237.4c23.9,0.9,46.2-2,65.9-8.7c18.9-91.6-30-174.2-30-174.2
			C381.7,154.3,332.2,221,318.2,237.4z"/>
		<path opacity="6.000000e-002" fill="#FFFFFF" d="M312,208.4c33.6-78.3,26.5-133.7,26.5-133.7c-27.1-40-81.5-60.4-81.5-60.4
			c-80.4,95.7-46.1,194.8-46.1,194.8c4.3-81.7,51.4-60.7,45.5-25.3c-3.1,18.9-8.9,29.1-17.7,38.4c26.3,8.9,52.2,13.9,76.5,15.1
			C316.2,223.1,312,208.4,312,208.4z"/>
	</g>
</g>
</svg>
